{
	"asset":{
		"generator":"Khronos glTF Blender I/O v4.5.47",
		"version":"2.0"
	},
	"scene":0,
	"scenes":[
		{
			"name":"Scene",
			"nodes":[
				4,
				5,
				6,
				7,
				8,
				9,
				10
			]
		}
	],
	"nodes":[
		{
			"mesh":0,
			"name":"lowLid",
			"rotation":[
				0.20728787779808044,
				0,
				0,
				0.9782800078392029
			],
			"scale":[
				0.9816232323646545,
				0.3922359347343445,
				0.5174728035926819
			],
			"translation":[
				0,
				-0.6003494262695312,
				0.2577973008155823
			]
		},
		{
			"mesh":1,
			"name":"upLid",
			"rotation":[
				-0.138353630900383,
				0,
				0,
				0.9903829097747803
			],
			"scale":[
				1.0825912952423096,
				0.39223596453666687,
				0.5174727439880371
			],
			"translation":[
				-0.004242610186338425,
				0.5964357852935791,
				0.30410200357437134
			]
		},
		{
			"children":[
				0,
				1
			],
			"mesh":2,
			"name":"eye",
			"rotation":[
				0,
				0,
				-0.16196008026599884,
				0.9867973327636719
			],
			"scale":[
				0.7164096236228943,
				0.7164096236228943,
				0.7164096236228943
			],
			"translation":[
				0.00024557800497859716,
				0.001693276921287179,
				0.5844814777374268
			]
		},
		{
			"mesh":3,
			"name":"eye.001",
			"rotation":[
				-0.5289182066917419,
				0.08680979162454605,
				-0.1367301493883133,
				0.8330753445625305
			],
			"scale":[
				0.7871461510658264,
				0.787146270275116,
				0.787146270275116
			],
			"translation":[
				0.00024557800497859716,
				0.001693276921287179,
				0.5844814777374268
			]
		},
		{
			"children":[
				2,
				3
			],
			"mesh":4,
			"name":"body"
		},
		{
			"mesh":5,
			"name":"particles",
			"translation":[
				1.7161058187484741,
				0.7986537218093872,
				0.475849986076355
			]
		},
		{
			"mesh":6,
			"name":"particles.001",
			"translation":[
				-2.8913402557373047,
				-0.6246943473815918,
				0.9220774173736572
			]
		},
		{
			"mesh":7,
			"name":"particles.002",
			"translation":[
				-1.0913034677505493,
				-0.6246944069862366,
				-1.566208839416504
			]
		},
		{
			"mesh":8,
			"name":"particles.003",
			"translation":[
				1.2305926084518433,
				0.2753238379955292,
				1.7615902423858643
			]
		},
		{
			"mesh":9,
			"name":"particles.004",
			"translation":[
				-1.7165265083312988,
				1.1389967203140259,
				1.3002363443374634
			]
		},
		{
			"mesh":10,
			"name":"particles.005",
			"translation":[
				1.0112603902816772,
				-0.05745592340826988,
				-1.5737721920013428
			]
		}
	],
	"animations":[
		{
			"channels":[
				{
					"sampler":0,
					"target":{
						"node":4,
						"path":"translation"
					}
				},
				{
					"sampler":1,
					"target":{
						"node":4,
						"path":"rotation"
					}
				},
				{
					"sampler":2,
					"target":{
						"node":4,
						"path":"scale"
					}
				},
				{
					"sampler":3,
					"target":{
						"node":2,
						"path":"translation"
					}
				},
				{
					"sampler":4,
					"target":{
						"node":2,
						"path":"rotation"
					}
				},
				{
					"sampler":5,
					"target":{
						"node":2,
						"path":"scale"
					}
				},
				{
					"sampler":6,
					"target":{
						"node":0,
						"path":"translation"
					}
				},
				{
					"sampler":7,
					"target":{
						"node":0,
						"path":"rotation"
					}
				},
				{
					"sampler":8,
					"target":{
						"node":0,
						"path":"scale"
					}
				},
				{
					"sampler":9,
					"target":{
						"node":1,
						"path":"translation"
					}
				},
				{
					"sampler":10,
					"target":{
						"node":1,
						"path":"rotation"
					}
				},
				{
					"sampler":11,
					"target":{
						"node":1,
						"path":"scale"
					}
				},
				{
					"sampler":12,
					"target":{
						"node":3,
						"path":"translation"
					}
				},
				{
					"sampler":13,
					"target":{
						"node":3,
						"path":"rotation"
					}
				},
				{
					"sampler":14,
					"target":{
						"node":3,
						"path":"scale"
					}
				},
				{
					"sampler":15,
					"target":{
						"node":5,
						"path":"translation"
					}
				},
				{
					"sampler":16,
					"target":{
						"node":5,
						"path":"rotation"
					}
				},
				{
					"sampler":17,
					"target":{
						"node":5,
						"path":"scale"
					}
				},
				{
					"sampler":18,
					"target":{
						"node":6,
						"path":"translation"
					}
				},
				{
					"sampler":19,
					"target":{
						"node":6,
						"path":"rotation"
					}
				},
				{
					"sampler":20,
					"target":{
						"node":6,
						"path":"scale"
					}
				},
				{
					"sampler":21,
					"target":{
						"node":7,
						"path":"translation"
					}
				},
				{
					"sampler":22,
					"target":{
						"node":7,
						"path":"rotation"
					}
				},
				{
					"sampler":23,
					"target":{
						"node":7,
						"path":"scale"
					}
				},
				{
					"sampler":24,
					"target":{
						"node":8,
						"path":"translation"
					}
				},
				{
					"sampler":25,
					"target":{
						"node":8,
						"path":"rotation"
					}
				},
				{
					"sampler":26,
					"target":{
						"node":8,
						"path":"scale"
					}
				},
				{
					"sampler":27,
					"target":{
						"node":9,
						"path":"translation"
					}
				},
				{
					"sampler":28,
					"target":{
						"node":9,
						"path":"rotation"
					}
				},
				{
					"sampler":29,
					"target":{
						"node":9,
						"path":"scale"
					}
				},
				{
					"sampler":30,
					"target":{
						"node":10,
						"path":"translation"
					}
				},
				{
					"sampler":31,
					"target":{
						"node":10,
						"path":"rotation"
					}
				},
				{
					"sampler":32,
					"target":{
						"node":10,
						"path":"scale"
					}
				}
			],
			"name":"AdIdle",
			"samplers":[
				{
					"input":40,
					"interpolation":"LINEAR",
					"output":41
				},
				{
					"input":40,
					"interpolation":"LINEAR",
					"output":42
				},
				{
					"input":43,
					"interpolation":"STEP",
					"output":44
				},
				{
					"input":43,
					"interpolation":"STEP",
					"output":45
				},
				{
					"input":43,
					"interpolation":"STEP",
					"output":46
				},
				{
					"input":43,
					"interpolation":"STEP",
					"output":47
				},
				{
					"input":40,
					"interpolation":"LINEAR",
					"output":48
				},
				{
					"input":43,
					"interpolation":"STEP",
					"output":49
				},
				{
					"input":43,
					"interpolation":"STEP",
					"output":50
				},
				{
					"input":40,
					"interpolation":"LINEAR",
					"output":51
				},
				{
					"input":43,
					"interpolation":"STEP",
					"output":52
				},
				{
					"input":43,
					"interpolation":"STEP",
					"output":53
				},
				{
					"input":43,
					"interpolation":"STEP",
					"output":45
				},
				{
					"input":40,
					"interpolation":"LINEAR",
					"output":54
				},
				{
					"input":40,
					"interpolation":"LINEAR",
					"output":55
				},
				{
					"input":40,
					"interpolation":"LINEAR",
					"output":56
				},
				{
					"input":40,
					"interpolation":"LINEAR",
					"output":57
				},
				{
					"input":43,
					"interpolation":"STEP",
					"output":44
				},
				{
					"input":40,
					"interpolation":"LINEAR",
					"output":58
				},
				{
					"input":40,
					"interpolation":"LINEAR",
					"output":57
				},
				{
					"input":43,
					"interpolation":"STEP",
					"output":44
				},
				{
					"input":40,
					"interpolation":"LINEAR",
					"output":59
				},
				{
					"input":40,
					"interpolation":"LINEAR",
					"output":57
				},
				{
					"input":43,
					"interpolation":"STEP",
					"output":44
				},
				{
					"input":40,
					"interpolation":"LINEAR",
					"output":60
				},
				{
					"input":40,
					"interpolation":"LINEAR",
					"output":57
				},
				{
					"input":43,
					"interpolation":"STEP",
					"output":44
				},
				{
					"input":40,
					"interpolation":"LINEAR",
					"output":61
				},
				{
					"input":40,
					"interpolation":"LINEAR",
					"output":57
				},
				{
					"input":43,
					"interpolation":"STEP",
					"output":44
				},
				{
					"input":40,
					"interpolation":"LINEAR",
					"output":62
				},
				{
					"input":40,
					"interpolation":"LINEAR",
					"output":57
				},
				{
					"input":43,
					"interpolation":"STEP",
					"output":44
				}
			]
		}
	],
	"materials":[
		{
			"doubleSided":true,
			"name":"blanc",
			"pbrMetallicRoughness":{
				"baseColorFactor":[
					0.800000011920929,
					0.800000011920929,
					0.800000011920929,
					1
				],
				"metallicFactor":0,
				"roughnessFactor":0.5
			}
		},
		{
			"doubleSided":true,
			"name":"red",
			"pbrMetallicRoughness":{
				"baseColorTexture":{
					"index":0
				},
				"metallicFactor":0,
				"roughnessFactor":0.5
			}
		},
		{
			"doubleSided":true,
			"name":"cloud",
			"pbrMetallicRoughness":{
				"baseColorFactor":[
					0.800000011920929,
					0.800000011920929,
					0.800000011920929,
					1
				],
				"metallicFactor":0,
				"roughnessFactor":0.5
			}
		}
	],
	"meshes":[
		{
			"name":"Cube.057",
			"primitives":[
				{
					"attributes":{
						"POSITION":0,
						"NORMAL":1,
						"TEXCOORD_0":2
					},
					"indices":3,
					"material":0
				}
			]
		},
		{
			"name":"Cube.050",
			"primitives":[
				{
					"attributes":{
						"POSITION":4,
						"NORMAL":5,
						"TEXCOORD_0":6
					},
					"indices":7,
					"material":0
				}
			]
		},
		{
			"name":"Cube.044",
			"primitives":[
				{
					"attributes":{
						"POSITION":8,
						"NORMAL":9,
						"TEXCOORD_0":10
					},
					"indices":11,
					"material":1
				}
			]
		},
		{
			"name":"Cube.071",
			"primitives":[
				{
					"attributes":{
						"POSITION":12,
						"NORMAL":13,
						"TEXCOORD_0":14
					},
					"indices":15,
					"material":0
				}
			]
		},
		{
			"name":"Cube",
			"primitives":[
				{
					"attributes":{
						"POSITION":16,
						"NORMAL":17,
						"TEXCOORD_0":18
					},
					"indices":19,
					"material":2
				}
			]
		},
		{
			"name":"Cube.058",
			"primitives":[
				{
					"attributes":{
						"POSITION":20,
						"NORMAL":21,
						"TEXCOORD_0":22
					},
					"indices":23,
					"material":2
				}
			]
		},
		{
			"name":"Cube.041",
			"primitives":[
				{
					"attributes":{
						"POSITION":24,
						"NORMAL":25,
						"TEXCOORD_0":26
					},
					"indices":27,
					"material":2
				}
			]
		},
		{
			"name":"Cube.051",
			"primitives":[
				{
					"attributes":{
						"POSITION":28,
						"NORMAL":29,
						"TEXCOORD_0":30
					},
					"indices":27,
					"material":2
				}
			]
		},
		{
			"name":"Cube.059",
			"primitives":[
				{
					"attributes":{
						"POSITION":31,
						"NORMAL":32,
						"TEXCOORD_0":33
					},
					"indices":27,
					"material":2
				}
			]
		},
		{
			"name":"Cube.060",
			"primitives":[
				{
					"attributes":{
						"POSITION":34,
						"NORMAL":35,
						"TEXCOORD_0":36
					},
					"indices":27,
					"material":2
				}
			]
		},
		{
			"name":"Cube.061",
			"primitives":[
				{
					"attributes":{
						"POSITION":37,
						"NORMAL":38,
						"TEXCOORD_0":39
					},
					"indices":27,
					"material":2
				}
			]
		}
	],
	"textures":[
		{
			"sampler":0,
			"source":0
		}
	],
	"images":[
		{
			"mimeType":"image/png",
			"name":"adobeEye",
			"uri":"adobeEye.png"
		}
	],
	"accessors":[
		{
			"bufferView":0,
			"componentType":5126,
			"count":96,
			"max":[
				0.716002345085144,
				0.8394166827201843,
				0.7419394850730896
			],
			"min":[
				-0.691685140132904,
				-0.8394169211387634,
				-0.8974924087524414
			],
			"type":"VEC3"
		},
		{
			"bufferView":1,
			"componentType":5126,
			"count":96,
			"type":"VEC3"
		},
		{
			"bufferView":2,
			"componentType":5126,
			"count":96,
			"type":"VEC2"
		},
		{
			"bufferView":3,
			"componentType":5123,
			"count":144,
			"type":"SCALAR"
		},
		{
			"bufferView":4,
			"componentType":5126,
			"count":96,
			"max":[
				0.769862949848175,
				0.7603369355201721,
				0.7193090319633484
			],
			"min":[
				-0.769862949848175,
				-0.8395062685012817,
				-0.8204169869422913
			],
			"type":"VEC3"
		},
		{
			"bufferView":5,
			"componentType":5126,
			"count":96,
			"type":"VEC3"
		},
		{
			"bufferView":6,
			"componentType":5126,
			"count":96,
			"type":"VEC2"
		},
		{
			"bufferView":7,
			"componentType":5123,
			"count":144,
			"type":"SCALAR"
		},
		{
			"bufferView":8,
			"componentType":5126,
			"count":96,
			"max":[
				0.8395062685012817,
				0.8395062685012817,
				0.8395062685012817
			],
			"min":[
				-0.8395062685012817,
				-0.8395062685012817,
				-0.8395062685012817
			],
			"type":"VEC3"
		},
		{
			"bufferView":9,
			"componentType":5126,
			"count":96,
			"type":"VEC3"
		},
		{
			"bufferView":10,
			"componentType":5126,
			"count":96,
			"type":"VEC2"
		},
		{
			"bufferView":11,
			"componentType":5123,
			"count":144,
			"type":"SCALAR"
		},
		{
			"bufferView":12,
			"componentType":5126,
			"count":56,
			"max":[
				0.8395062685012817,
				0.8395062685012817,
				0.8395062685012817
			],
			"min":[
				-0.8395062685012817,
				-2.7939677238464355e-09,
				-0.8395062685012817
			],
			"type":"VEC3"
		},
		{
			"bufferView":13,
			"componentType":5126,
			"count":56,
			"type":"VEC3"
		},
		{
			"bufferView":14,
			"componentType":5126,
			"count":56,
			"type":"VEC2"
		},
		{
			"bufferView":15,
			"componentType":5123,
			"count":90,
			"type":"SCALAR"
		},
		{
			"bufferView":16,
			"componentType":5126,
			"count":1428,
			"max":[
				1.9566426277160645,
				1.013098120689392,
				0.8856921792030334
			],
			"min":[
				-2.5635108947753906,
				-1.145035743713379,
				-1.3984010219573975
			],
			"type":"VEC3"
		},
		{
			"bufferView":17,
			"componentType":5126,
			"count":1428,
			"type":"VEC3"
		},
		{
			"bufferView":18,
			"componentType":5126,
			"count":1428,
			"type":"VEC2"
		},
		{
			"bufferView":19,
			"componentType":5123,
			"count":2196,
			"type":"SCALAR"
		},
		{
			"bufferView":20,
			"componentType":5126,
			"count":96,
			"max":[
				0.3630932867527008,
				0.2252047210931778,
				0.3452798128128052
			],
			"min":[
				-0.36309298872947693,
				-0.22520457208156586,
				-0.3452798128128052
			],
			"type":"VEC3"
		},
		{
			"bufferView":21,
			"componentType":5126,
			"count":96,
			"type":"VEC3"
		},
		{
			"bufferView":22,
			"componentType":5126,
			"count":96,
			"type":"VEC2"
		},
		{
			"bufferView":23,
			"componentType":5123,
			"count":144,
			"type":"SCALAR"
		},
		{
			"bufferView":24,
			"componentType":5126,
			"count":96,
			"max":[
				0.3630932867527008,
				0.2252047210931778,
				0.34527984261512756
			],
			"min":[
				-0.36309298872947693,
				-0.22520457208156586,
				-0.34527984261512756
			],
			"type":"VEC3"
		},
		{
			"bufferView":25,
			"componentType":5126,
			"count":96,
			"type":"VEC3"
		},
		{
			"bufferView":26,
			"componentType":5126,
			"count":96,
			"type":"VEC2"
		},
		{
			"bufferView":27,
			"componentType":5123,
			"count":144,
			"type":"SCALAR"
		},
		{
			"bufferView":28,
			"componentType":5126,
			"count":96,
			"max":[
				0.19015192985534668,
				0.11793971061706543,
				0.1808229684829712
			],
			"min":[
				-0.19015169143676758,
				-0.11793959140777588,
				-0.1808229684829712
			],
			"type":"VEC3"
		},
		{
			"bufferView":29,
			"componentType":5126,
			"count":96,
			"type":"VEC3"
		},
		{
			"bufferView":30,
			"componentType":5126,
			"count":96,
			"type":"VEC2"
		},
		{
			"bufferView":31,
			"componentType":5126,
			"count":96,
			"max":[
				0.1901519000530243,
				0.11793968826532364,
				0.1808229684829712
			],
			"min":[
				-0.19015172123908997,
				-0.11793961375951767,
				-0.1808229684829712
			],
			"type":"VEC3"
		},
		{
			"bufferView":32,
			"componentType":5126,
			"count":96,
			"type":"VEC3"
		},
		{
			"bufferView":33,
			"componentType":5126,
			"count":96,
			"type":"VEC2"
		},
		{
			"bufferView":34,
			"componentType":5126,
			"count":96,
			"max":[
				0.13981851935386658,
				0.08672096580266953,
				0.13295899331569672
			],
			"min":[
				-0.1398184597492218,
				-0.08672092109918594,
				-0.1329590231180191
			],
			"type":"VEC3"
		},
		{
			"bufferView":35,
			"componentType":5126,
			"count":96,
			"type":"VEC3"
		},
		{
			"bufferView":36,
			"componentType":5126,
			"count":96,
			"type":"VEC2"
		},
		{
			"bufferView":37,
			"componentType":5126,
			"count":96,
			"max":[
				0.12749314308166504,
				0.07907631993293762,
				0.1212383508682251
			],
			"min":[
				-0.12749314308166504,
				-0.07907626032829285,
				-0.121238112449646
			],
			"type":"VEC3"
		},
		{
			"bufferView":38,
			"componentType":5126,
			"count":96,
			"type":"VEC3"
		},
		{
			"bufferView":39,
			"componentType":5126,
			"count":96,
			"type":"VEC2"
		},
		{
			"bufferView":40,
			"componentType":5126,
			"count":60,
			"max":[
				2
			],
			"min":[
				0.03333333333333333
			],
			"type":"SCALAR"
		},
		{
			"bufferView":41,
			"componentType":5126,
			"count":60,
			"type":"VEC3"
		},
		{
			"bufferView":42,
			"componentType":5126,
			"count":60,
			"type":"VEC4"
		},
		{
			"bufferView":43,
			"componentType":5126,
			"count":2,
			"max":[
				2
			],
			"min":[
				0.03333333333333333
			],
			"type":"SCALAR"
		},
		{
			"bufferView":44,
			"componentType":5126,
			"count":2,
			"type":"VEC3"
		},
		{
			"bufferView":45,
			"componentType":5126,
			"count":2,
			"type":"VEC3"
		},
		{
			"bufferView":46,
			"componentType":5126,
			"count":2,
			"type":"VEC4"
		},
		{
			"bufferView":47,
			"componentType":5126,
			"count":2,
			"type":"VEC3"
		},
		{
			"bufferView":48,
			"componentType":5126,
			"count":60,
			"type":"VEC3"
		},
		{
			"bufferView":49,
			"componentType":5126,
			"count":2,
			"type":"VEC4"
		},
		{
			"bufferView":50,
			"componentType":5126,
			"count":2,
			"type":"VEC3"
		},
		{
			"bufferView":51,
			"componentType":5126,
			"count":60,
			"type":"VEC3"
		},
		{
			"bufferView":52,
			"componentType":5126,
			"count":2,
			"type":"VEC4"
		},
		{
			"bufferView":53,
			"componentType":5126,
			"count":2,
			"type":"VEC3"
		},
		{
			"bufferView":54,
			"componentType":5126,
			"count":60,
			"type":"VEC4"
		},
		{
			"bufferView":55,
			"componentType":5126,
			"count":60,
			"type":"VEC3"
		},
		{
			"bufferView":56,
			"componentType":5126,
			"count":60,
			"type":"VEC3"
		},
		{
			"bufferView":57,
			"componentType":5126,
			"count":60,
			"type":"VEC4"
		},
		{
			"bufferView":58,
			"componentType":5126,
			"count":60,
			"type":"VEC3"
		},
		{
			"bufferView":59,
			"componentType":5126,
			"count":60,
			"type":"VEC3"
		},
		{
			"bufferView":60,
			"componentType":5126,
			"count":60,
			"type":"VEC3"
		},
		{
			"bufferView":61,
			"componentType":5126,
			"count":60,
			"type":"VEC3"
		},
		{
			"bufferView":62,
			"componentType":5126,
			"count":60,
			"type":"VEC3"
		}
	],
	"bufferViews":[
		{
			"buffer":0,
			"byteLength":1152,
			"byteOffset":0,
			"target":34962
		},
		{
			"buffer":0,
			"byteLength":1152,
			"byteOffset":1152,
			"target":34962
		},
		{
			"buffer":0,
			"byteLength":768,
			"byteOffset":2304,
			"target":34962
		},
		{
			"buffer":0,
			"byteLength":288,
			"byteOffset":3072,
			"target":34963
		},
		{
			"buffer":0,
			"byteLength":1152,
			"byteOffset":3360,
			"target":34962
		},
		{
			"buffer":0,
			"byteLength":1152,
			"byteOffset":4512,
			"target":34962
		},
		{
			"buffer":0,
			"byteLength":768,
			"byteOffset":5664,
			"target":34962
		},
		{
			"buffer":0,
			"byteLength":288,
			"byteOffset":6432,
			"target":34963
		},
		{
			"buffer":0,
			"byteLength":1152,
			"byteOffset":6720,
			"target":34962
		},
		{
			"buffer":0,
			"byteLength":1152,
			"byteOffset":7872,
			"target":34962
		},
		{
			"buffer":0,
			"byteLength":768,
			"byteOffset":9024,
			"target":34962
		},
		{
			"buffer":0,
			"byteLength":288,
			"byteOffset":9792,
			"target":34963
		},
		{
			"buffer":0,
			"byteLength":672,
			"byteOffset":10080,
			"target":34962
		},
		{
			"buffer":0,
			"byteLength":672,
			"byteOffset":10752,
			"target":34962
		},
		{
			"buffer":0,
			"byteLength":448,
			"byteOffset":11424,
			"target":34962
		},
		{
			"buffer":0,
			"byteLength":180,
			"byteOffset":11872,
			"target":34963
		},
		{
			"buffer":0,
			"byteLength":17136,
			"byteOffset":12052,
			"target":34962
		},
		{
			"buffer":0,
			"byteLength":17136,
			"byteOffset":29188,
			"target":34962
		},
		{
			"buffer":0,
			"byteLength":11424,
			"byteOffset":46324,
			"target":34962
		},
		{
			"buffer":0,
			"byteLength":4392,
			"byteOffset":57748,
			"target":34963
		},
		{
			"buffer":0,
			"byteLength":1152,
			"byteOffset":62140,
			"target":34962
		},
		{
			"buffer":0,
			"byteLength":1152,
			"byteOffset":63292,
			"target":34962
		},
		{
			"buffer":0,
			"byteLength":768,
			"byteOffset":64444,
			"target":34962
		},
		{
			"buffer":0,
			"byteLength":288,
			"byteOffset":65212,
			"target":34963
		},
		{
			"buffer":0,
			"byteLength":1152,
			"byteOffset":65500,
			"target":34962
		},
		{
			"buffer":0,
			"byteLength":1152,
			"byteOffset":66652,
			"target":34962
		},
		{
			"buffer":0,
			"byteLength":768,
			"byteOffset":67804,
			"target":34962
		},
		{
			"buffer":0,
			"byteLength":288,
			"byteOffset":68572,
			"target":34963
		},
		{
			"buffer":0,
			"byteLength":1152,
			"byteOffset":68860,
			"target":34962
		},
		{
			"buffer":0,
			"byteLength":1152,
			"byteOffset":70012,
			"target":34962
		},
		{
			"buffer":0,
			"byteLength":768,
			"byteOffset":71164,
			"target":34962
		},
		{
			"buffer":0,
			"byteLength":1152,
			"byteOffset":71932,
			"target":34962
		},
		{
			"buffer":0,
			"byteLength":1152,
			"byteOffset":73084,
			"target":34962
		},
		{
			"buffer":0,
			"byteLength":768,
			"byteOffset":74236,
			"target":34962
		},
		{
			"buffer":0,
			"byteLength":1152,
			"byteOffset":75004,
			"target":34962
		},
		{
			"buffer":0,
			"byteLength":1152,
			"byteOffset":76156,
			"target":34962
		},
		{
			"buffer":0,
			"byteLength":768,
			"byteOffset":77308,
			"target":34962
		},
		{
			"buffer":0,
			"byteLength":1152,
			"byteOffset":78076,
			"target":34962
		},
		{
			"buffer":0,
			"byteLength":1152,
			"byteOffset":79228,
			"target":34962
		},
		{
			"buffer":0,
			"byteLength":768,
			"byteOffset":80380,
			"target":34962
		},
		{
			"buffer":0,
			"byteLength":240,
			"byteOffset":81148
		},
		{
			"buffer":0,
			"byteLength":720,
			"byteOffset":81388
		},
		{
			"buffer":0,
			"byteLength":960,
			"byteOffset":82108
		},
		{
			"buffer":0,
			"byteLength":8,
			"byteOffset":83068
		},
		{
			"buffer":0,
			"byteLength":24,
			"byteOffset":83076
		},
		{
			"buffer":0,
			"byteLength":24,
			"byteOffset":83100
		},
		{
			"buffer":0,
			"byteLength":32,
			"byteOffset":83124
		},
		{
			"buffer":0,
			"byteLength":24,
			"byteOffset":83156
		},
		{
			"buffer":0,
			"byteLength":720,
			"byteOffset":83180
		},
		{
			"buffer":0,
			"byteLength":32,
			"byteOffset":83900
		},
		{
			"buffer":0,
			"byteLength":24,
			"byteOffset":83932
		},
		{
			"buffer":0,
			"byteLength":720,
			"byteOffset":83956
		},
		{
			"buffer":0,
			"byteLength":32,
			"byteOffset":84676
		},
		{
			"buffer":0,
			"byteLength":24,
			"byteOffset":84708
		},
		{
			"buffer":0,
			"byteLength":960,
			"byteOffset":84732
		},
		{
			"buffer":0,
			"byteLength":720,
			"byteOffset":85692
		},
		{
			"buffer":0,
			"byteLength":720,
			"byteOffset":86412
		},
		{
			"buffer":0,
			"byteLength":960,
			"byteOffset":87132
		},
		{
			"buffer":0,
			"byteLength":720,
			"byteOffset":88092
		},
		{
			"buffer":0,
			"byteLength":720,
			"byteOffset":88812
		},
		{
			"buffer":0,
			"byteLength":720,
			"byteOffset":89532
		},
		{
			"buffer":0,
			"byteLength":720,
			"byteOffset":90252
		},
		{
			"buffer":0,
			"byteLength":720,
			"byteOffset":90972
		}
	],
	"samplers":[
		{
			"magFilter":9729,
			"minFilter":9987
		}
	],
	"buffers":[
		{
			"byteLength":91692,
			"uri":"Adoubee.bin"
		}
	]
}
