{
	"asset":{
		"generator":"Khronos glTF Blender I/O v4.5.47",
		"version":"2.0"
	},
	"scene":0,
	"scenes":[
		{
			"name":"Scene",
			"nodes":[
				0,
				1
			]
		}
	],
	"nodes":[
		{
			"mesh":0,
			"name":"Cube.006",
			"scale":[
				0.059658199548721313,
				0.059658199548721313,
				0.02061866596341133
			],
			"translation":[
				-0.37045615911483765,
				0.37270915508270264,
				0
			]
		},
		{
			"mesh":1,
			"name":"Cube.003",
			"scale":[
				0,
				0,
				0
			],
			"translation":[
				-0.37045615911483765,
				0.37270915508270264,
				0
			]
		}
	],
	"animations":[
		{
			"channels":[
				{
					"sampler":0,
					"target":{
						"node":0,
						"path":"translation"
					}
				},
				{
					"sampler":1,
					"target":{
						"node":0,
						"path":"rotation"
					}
				},
				{
					"sampler":2,
					"target":{
						"node":0,
						"path":"scale"
					}
				},
				{
					"sampler":3,
					"target":{
						"node":1,
						"path":"translation"
					}
				},
				{
					"sampler":4,
					"target":{
						"node":1,
						"path":"rotation"
					}
				},
				{
					"sampler":5,
					"target":{
						"node":1,
						"path":"scale"
					}
				}
			],
			"name":"PeIdle",
			"samplers":[
				{
					"input":7,
					"interpolation":"LINEAR",
					"output":8
				},
				{
					"input":7,
					"interpolation":"LINEAR",
					"output":9
				},
				{
					"input":7,
					"interpolation":"LINEAR",
					"output":10
				},
				{
					"input":11,
					"interpolation":"STEP",
					"output":12
				},
				{
					"input":11,
					"interpolation":"STEP",
					"output":13
				},
				{
					"input":11,
					"interpolation":"LINEAR",
					"output":14
				}
			]
		}
	],
	"meshes":[
		{
			"name":"Cube.092",
			"primitives":[
				{
					"attributes":{
						"POSITION":0,
						"NORMAL":1,
						"TEXCOORD_0":2
					},
					"indices":3
				}
			]
		},
		{
			"name":"Cube.096",
			"primitives":[
				{
					"attributes":{
						"POSITION":4,
						"NORMAL":5,
						"TEXCOORD_0":6
					},
					"indices":3
				}
			]
		}
	],
	"accessors":[
		{
			"bufferView":0,
			"componentType":5126,
			"count":384,
			"max":[
				0.8395062685012817,
				0.8395062685012817,
				0.8395062685012817
			],
			"min":[
				-0.8395062685012817,
				-0.8395062685012817,
				-0.8395062685012817
			],
			"type":"VEC3"
		},
		{
			"bufferView":1,
			"componentType":5126,
			"count":384,
			"type":"VEC3"
		},
		{
			"bufferView":2,
			"componentType":5126,
			"count":384,
			"type":"VEC2"
		},
		{
			"bufferView":3,
			"componentType":5123,
			"count":576,
			"type":"SCALAR"
		},
		{
			"bufferView":4,
			"componentType":5126,
			"count":384,
			"max":[
				0.8395062685012817,
				0.8395062685012817,
				0.8395062685012817
			],
			"min":[
				-0.8395062685012817,
				-0.8395062685012817,
				-0.8395062685012817
			],
			"type":"VEC3"
		},
		{
			"bufferView":5,
			"componentType":5126,
			"count":384,
			"type":"VEC3"
		},
		{
			"bufferView":6,
			"componentType":5126,
			"count":384,
			"type":"VEC2"
		},
		{
			"bufferView":7,
			"componentType":5126,
			"count":1,
			"max":[
				0.3333333333333333
			],
			"min":[
				0.3333333333333333
			],
			"type":"SCALAR"
		},
		{
			"bufferView":8,
			"componentType":5126,
			"count":1,
			"type":"VEC3"
		},
		{
			"bufferView":9,
			"componentType":5126,
			"count":1,
			"type":"VEC4"
		},
		{
			"bufferView":10,
			"componentType":5126,
			"count":1,
			"type":"VEC3"
		},
		{
			"bufferView":11,
			"componentType":5126,
			"count":2,
			"max":[
				0.36666666666666664
			],
			"min":[
				0.3333333333333333
			],
			"type":"SCALAR"
		},
		{
			"bufferView":12,
			"componentType":5126,
			"count":2,
			"type":"VEC3"
		},
		{
			"bufferView":13,
			"componentType":5126,
			"count":2,
			"type":"VEC4"
		},
		{
			"bufferView":14,
			"componentType":5126,
			"count":2,
			"type":"VEC3"
		}
	],
	"bufferViews":[
		{
			"buffer":0,
			"byteLength":4608,
			"byteOffset":0,
			"target":34962
		},
		{
			"buffer":0,
			"byteLength":4608,
			"byteOffset":4608,
			"target":34962
		},
		{
			"buffer":0,
			"byteLength":3072,
			"byteOffset":9216,
			"target":34962
		},
		{
			"buffer":0,
			"byteLength":1152,
			"byteOffset":12288,
			"target":34963
		},
		{
			"buffer":0,
			"byteLength":4608,
			"byteOffset":13440,
			"target":34962
		},
		{
			"buffer":0,
			"byteLength":4608,
			"byteOffset":18048,
			"target":34962
		},
		{
			"buffer":0,
			"byteLength":3072,
			"byteOffset":22656,
			"target":34962
		},
		{
			"buffer":0,
			"byteLength":4,
			"byteOffset":25728
		},
		{
			"buffer":0,
			"byteLength":12,
			"byteOffset":25732
		},
		{
			"buffer":0,
			"byteLength":16,
			"byteOffset":25744
		},
		{
			"buffer":0,
			"byteLength":12,
			"byteOffset":25760
		},
		{
			"buffer":0,
			"byteLength":8,
			"byteOffset":25772
		},
		{
			"buffer":0,
			"byteLength":24,
			"byteOffset":25780
		},
		{
			"buffer":0,
			"byteLength":32,
			"byteOffset":25804
		},
		{
			"buffer":0,
			"byteLength":24,
			"byteOffset":25836
		}
	],
	"buffers":[
		{
			"byteLength":25860,
			"uri":"test.bin"
		}
	]
}
